<svg xmlns="http://www.w3.org/2000/svg" version="1.1" xmlns:xlink="http://www.w3.org/1999/xlink" xmlns:svgjs="http://svgjs.dev/svgjs" width="1000" height="1000" viewBox="0 0 1000 1000"><g transform="matrix(1,0,0,1,-0.14221556886212738,-0.14221556886229791)"><svg viewBox="0 0 334 334" data-background-color="#ffffff" preserveAspectRatio="xMidYMid meet" height="1000" width="1000" xmlns="http://www.w3.org/2000/svg" xmlns:xlink="http://www.w3.org/1999/xlink"><g id="tight-bounds" transform="matrix(1,0,0,1,0.04749999999998522,0.04750000000001364)"><svg viewBox="0 0 333.90454557049503 333.90454557049503" height="333.90454557049503" width="333.90454557049503"><g><svg></svg></g><g><svg viewBox="0 0 333.90454557049503 333.90454557049503" height="333.90454557049503" width="333.90454557049503"><g><path d="M0 166.952c0-92.205 74.747-166.952 166.952-166.952 92.205 0 166.952 74.747 166.953 166.952 0 92.205-74.747 166.952-166.953 166.953-92.205 0-166.952-74.747-166.952-166.953zM166.952 329.278c89.65 0 162.326-72.676 162.326-162.326 0-89.65-72.676-162.326-162.326-162.325-89.65 0-162.326 72.676-162.325 162.325 0 89.65 72.676 162.326 162.325 162.326z" data-fill-palette-color="tertiary" fill="#ae95ad" stroke="transparent"></path><ellipse rx="160.27418187383762" ry="160.27418187383762" cx="166.95227278524752" cy="166.95227278524752" fill="#ae95ad" stroke="transparent" stroke-width="0" fill-opacity="1" data-fill-palette-color="tertiary"></ellipse></g><g transform="matrix(1,0,0,1,93.58558576651905,71.17305217166896)"><svg viewBox="0 0 146.73337403745694 191.55844122715712" height="191.55844122715712" width="146.73337403745694"><g><svg viewBox="0 0 146.73337403745694 191.55844122715712" height="191.55844122715712" width="146.73337403745694"><g><svg viewBox="0 0 213.1584412271571 278.2754707559676" height="191.55844122715712" width="146.73337403745694"><g transform="matrix(1,0,0,1,0,148.88412319936688)"><svg viewBox="0 0 213.1584412271571 129.39134755660072" height="129.39134755660072" width="213.1584412271571"><g id="textblocktransform"><svg viewBox="0 0 213.1584412271571 129.39134755660072" height="129.39134755660072" width="213.1584412271571" id="textblock"><g><svg viewBox="0 0 213.1584412271571 74.530923505999" height="74.530923505999" width="213.1584412271571"><g transform="matrix(1,0,0,1,0,0)"><svg width="213.1584412271571" viewBox="-0.25 -36 142.99000549316406 50" height="74.530923505999" data-palette-color="#b2d8da"><path d="M-0.25 4.35L-0.25 4.35Q0 3.6 1.23 0.93 2.45-1.75 4.53-6.23 6.6-10.7 9.45-16.85 12.3-23 15.8-30.7L15.8-30.7Q16-31.1 16.13-31.55 16.25-32 16.25-32.35L16.25-32.35Q16.25-32.85 15.95-33.15 15.65-33.45 14.8-33.45L14.8-33.45Q12.7-33.45 11.38-32.18 10.05-30.9 9.43-29.05 8.8-27.2 8.8-25.4L8.8-25.4Q8.8-24.95 8.85-24.35 8.9-23.75 9-23L9-23Q7.8-23 7.03-23.73 6.25-24.45 5.85-25.53 5.45-26.6 5.45-27.55L5.45-27.55Q5.45-29.15 6.38-30.65 7.3-32.15 8.8-33.38 10.3-34.6 12.13-35.3 13.95-36 15.75-36L15.75-36Q17.6-36 18.9-34.98 20.2-33.95 20.9-31.28 21.6-28.6 21.6-23.6L21.6-23.6Q21.6-20.35 21.38-17.03 21.15-13.7 20.9-10.8 20.65-7.9 20.65-5.85L20.65-5.85Q21.65-8.8 23.13-12.13 24.6-15.45 26.3-18.73 28-22 29.65-24.9 31.3-27.8 32.63-29.98 33.95-32.15 34.65-33.2L34.65-33.2Q35.35-34.3 35.9-34.85 36.45-35.4 37.4-35.4L37.4-35.4Q38.1-35.4 39.6-34.85L39.6-34.85Q39.15-33.9 38.55-31.83 37.95-29.75 37.25-27L37.25-27Q36.5-24 35.75-20.43 35-16.85 34.4-13.2 33.8-9.55 33.43-6.28 33.05-3 33.05-0.5L33.05-0.5Q33.05 0.8 33.18 1.55 33.3 2.3 33.52 2.88 33.75 3.45 34.05 4.35L34.05 4.35Q31.9 4.35 30.78 3.7 29.65 3.05 29.28 1.63 28.9 0.2 28.9-2.15L28.9-2.15Q28.9-7.7 30.18-13.83 31.45-19.95 33.15-26.45L33.15-26.45Q31.75-24.45 30.25-21.7 28.75-18.95 27.3-15.9 25.85-12.85 24.55-9.88 23.25-6.9 22.25-4.38 21.25-1.85 20.7-0.15L20.7-0.15Q20.25 0 20.08 0.05 19.9 0.1 19.65 0.1L19.65 0.1Q17.9 0.1 17.43-2.02 16.95-4.15 16.95-7.85L16.95-7.85Q16.95-9.8 17-12.03 17.05-14.25 17.15-16.57 17.25-18.9 17.3-21.2 17.35-23.5 17.35-25.6L17.35-25.6Q17.35-26.35 17.32-27.1 17.3-27.85 17.3-28.55L17.3-28.55Q13.5-19.7 10.88-13.43 8.25-7.15 6.4-3.23 4.55 0.7 3 2.53 1.45 4.35-0.25 4.35ZM42 2.35L42 2.35Q40.35 2.35 39.12 1.25 37.9 0.15 37.9-2.05L37.9-2.05Q37.9-3.8 38.7-5.85 39.5-7.9 40.9-9.9 42.3-11.9 44.1-13.53 45.9-15.15 47.95-16.15 50-17.15 52.05-17.15L52.05-17.15Q54.2-17.15 55.7-16.05 57.2-14.95 57.2-13.15L57.2-13.15Q57.2-11.8 56.25-11.2 55.3-10.6 54-10.85L54-10.85Q54.1-11.3 54.17-11.75 54.25-12.2 54.25-12.7L54.25-12.7Q54.25-13.7 53.85-14.5 53.45-15.3 52.15-15.3L52.15-15.3Q50.75-15.3 49.3-14.35 47.85-13.4 46.52-11.88 45.2-10.35 44.15-8.53 43.1-6.7 42.5-4.95 41.9-3.2 41.9-1.8L41.9-1.8Q41.9-0.2 43.05-0.2L43.05-0.2Q44.2-0.2 45.6-1.33 47-2.45 48.42-4.15 49.85-5.85 51.15-7.63 52.45-9.4 53.4-10.65L53.4-10.65Q53.55-10.9 53.8-10.9L53.8-10.9Q54-10.85 54.57-10.68 55.15-10.5 55.65-10.15 56.15-9.8 56.15-9.25L56.15-9.25Q56.15-8.75 55.72-7.98 55.3-7.2 54.72-6.28 54.15-5.35 53.72-4.42 53.3-3.5 53.3-2.65L53.3-2.65Q53.3-2 53.65-1.43 54-0.85 54.8-0.85L54.8-0.85Q56-0.85 58.17-2.63 60.35-4.4 62.6-8.65L62.6-8.65 63.55-7.7Q62.35-5 60.67-2.93 59-0.85 57.15 0.33 55.3 1.5 53.4 1.5L53.4 1.5Q51.35 1.5 50.35 0.2 49.35-1.1 49.25-2.6L49.25-2.6Q49.25-2.7 49.25-2.75 49.25-2.8 49.25-2.85L49.25-2.85Q47.25-0.45 45.57 0.95 43.9 2.35 42 2.35ZM77.25 1.9L77.25 1.9Q75.7 1.9 74.55 0.9 73.4-0.1 72.7-1.6 72-3.1 71.65-4.67 71.3-6.25 71.3-7.4L71.3-7.4Q72-7.55 73.05-7.85 74.1-8.15 75.2-8.68 76.3-9.2 77.02-9.98 77.75-10.75 77.75-11.85L77.75-11.85Q77.75-12.75 77.17-13.3 76.6-13.85 75.55-13.85L75.55-13.85Q74.15-13.85 72.9-12.93 71.65-12 70.57-10.5 69.5-9 68.62-7.25 67.75-5.5 67.07-3.85 66.4-2.2 65.95-1L65.95-1Q65.4 0.5 64.9 1.03 64.4 1.55 63.45 1.55L63.45 1.55Q63.1 1.55 62.62 1.35 62.15 1.15 61.82 0.35 61.5-0.45 61.5-2.2L61.5-2.2Q61.5-5.25 62.35-8.9 63.2-12.55 64.62-16.32 66.05-20.1 67.75-23.55 69.45-27 71.2-29.75 72.95-32.5 74.47-34.1 76-35.7 77-35.7L77-35.7Q77.85-35.7 78.42-34.68 79-33.65 79-32.05L79-32.05Q79-30.35 78.25-28.28 77.5-26.2 76.12-24.08 74.75-21.95 72.85-20.05 70.95-18.15 68.65-16.8L68.65-16.8Q67.25-13.55 66.5-10.38 65.75-7.2 65.55-4.75L65.55-4.75Q66.45-6.8 67.6-8.95 68.75-11.1 70.15-12.98 71.55-14.85 73.17-16 74.8-17.15 76.65-17.15L76.65-17.15Q78.65-17.15 80.15-15.75 81.65-14.35 81.65-12.25L81.65-12.25Q81.65-10.75 80.85-9.65 80.05-8.55 78.87-7.83 77.7-7.1 76.5-6.75 75.3-6.4 74.45-6.35L74.45-6.35Q74.6-5.7 74.87-4.7 75.15-3.7 75.6-2.75 76.05-1.8 76.75-1.15 77.45-0.5 78.4-0.5L78.4-0.5Q79.65-0.5 80.97-1.65 82.3-2.8 83.57-4.7 84.85-6.6 85.85-8.9L85.85-8.9 86.55-8.05Q85.7-5.55 84.22-3.25 82.75-0.95 80.95 0.48 79.15 1.9 77.25 1.9ZM70.1-20.2L70.1-20.2Q71.45-21.4 72.95-23.18 74.45-24.95 75.52-26.98 76.6-29 76.65-30.85L76.65-30.85Q76.65-30.9 76.65-30.93 76.65-30.95 76.65-31L76.65-31Q76.15-30.8 75.07-29.28 74-27.75 72.7-25.4 71.4-23.05 70.1-20.2ZM90.29 2.2L90.29 2.2Q87.09 2.2 85.37 0.48 83.64-1.25 83.64-3.85L83.64-3.85Q83.64-6.05 84.77-8.53 85.89-11 87.79-13.18 89.69-15.35 91.99-16.7 94.29-18.05 96.59-18.05L96.59-18.05Q97.89-18.05 99.07-17.38 100.24-16.7 100.24-14.7L100.24-14.7Q100.24-12.8 99.14-11.15 98.04-9.5 96.19-8.2 94.34-6.9 92.12-6.08 89.89-5.25 87.64-5L87.64-5Q87.59-4.8 87.57-4.58 87.54-4.35 87.54-3.85L87.54-3.85Q87.54-3.6 87.62-2.98 87.69-2.35 88.04-1.65 88.39-0.95 89.19-0.45 89.99 0.05 91.39 0.05L91.39 0.05Q93.49 0.05 95.62-1.13 97.74-2.3 99.62-4.25 101.49-6.2 102.74-8.6L102.74-8.6 103.74-7.8Q102.39-4.8 100.27-2.55 98.14-0.3 95.57 0.95 92.99 2.2 90.29 2.2ZM88.19-6.85L88.19-6.85Q89.49-7 91.09-7.75 92.69-8.5 94.17-9.65 95.64-10.8 96.59-12.18 97.54-13.55 97.54-14.95L97.54-14.95Q97.54-15.5 97.34-15.7 97.14-15.9 96.69-15.9L96.69-15.9Q95.54-15.9 94.29-15.08 93.04-14.25 91.84-12.93 90.64-11.6 89.69-10 88.74-8.4 88.19-6.85ZM105.34 1.5L105.34 1.5Q103.64 1.5 102.57-0.08 101.49-1.65 101.49-3.7L101.49-3.7Q101.49-5.1 101.94-7 102.39-8.9 103.12-10.7 103.84-12.5 104.62-13.7 105.39-14.9 106.04-14.9L106.04-14.9Q106.39-14.9 107.12-14.53 107.84-14.15 108.39-13.6L108.39-13.6Q107.84-12.8 107.07-11.15 106.29-9.5 105.69-7.6 105.09-5.7 105.09-4.15L105.09-4.15Q105.09-3.95 105.17-3.2 105.24-2.45 105.54-1.8 105.84-1.15 106.59-1.15L106.59-1.15Q107.44-1.15 108.42-2.08 109.39-3 110.42-4.48 111.44-5.95 112.42-7.65 113.39-9.35 114.17-10.95 114.94-12.55 115.44-13.65L115.44-13.65Q115.89-13.6 116.62-13.4 117.34-13.2 117.89-12.88 118.44-12.55 118.44-11.95L118.44-11.95Q118.44-11.8 117.97-10.73 117.49-9.65 116.87-8.15 116.24-6.65 115.77-5.08 115.29-3.5 115.29-2.3L115.29-2.3Q115.29-1.6 115.57-1.07 115.84-0.55 116.64-0.55L116.64-0.55Q117.69-0.55 119.14-1.5 120.59-2.45 122.14-4.25 123.69-6.05 124.89-8.55L124.89-8.55 125.64-7.95Q124.54-5.25 122.79-3.1 121.04-0.95 119.04 0.28 117.04 1.5 115.14 1.5L115.14 1.5Q113.69 1.5 112.97 0.83 112.24 0.15 111.99-0.93 111.74-2 111.69-3.1L111.69-3.1Q111.69-3.35 111.69-3.63 111.69-3.9 111.69-4.1L111.69-4.1Q110.84-2.75 109.84-1.48 108.84-0.2 107.72 0.65 106.59 1.5 105.34 1.5ZM120.79 14L120.79 14Q120.39 14 119.94 13.78 119.49 13.55 119.16 13.25 118.84 12.95 118.79 12.75L118.79 12.75Q120.04 9.1 120.91 6.43 121.79 3.75 122.39 1.38 122.99-1 123.46-3.58 123.94-6.15 124.41-9.47 124.89-12.8 125.49-17.5L125.49-17.5Q125.59-18.1 125.74-18.38 125.89-18.65 126.69-18.65L126.69-18.65Q128.24-18.65 128.94-17.82 129.64-17 129.64-16L129.64-16Q129.64-15.5 129.46-14.25 129.29-13 128.94-11.3L128.94-11.3Q129.89-12.75 131.11-14.05 132.34-15.35 133.84-16.18 135.34-17 137.09-17L137.09-17Q139.54-17 141.14-15.35 142.74-13.7 142.74-11L142.74-11Q142.74-9.05 141.86-6.88 140.99-4.7 139.39-2.78 137.79-0.85 135.54 0.38 133.29 1.6 130.59 1.6L130.59 1.6Q128.99 1.6 128.04 1.2 127.09 0.8 127.09 0.3L127.09 0.3Q127.09-0.05 127.46-0.13 127.84-0.2 128.29-0.2L128.29-0.2Q130.64-0.25 132.56-1.2 134.49-2.15 135.89-3.68 137.29-5.2 138.04-6.95 138.79-8.7 138.79-10.4L138.79-10.4Q138.79-11.9 138.11-13 137.44-14.1 135.99-14.1L135.99-14.1Q134.74-14.1 133.46-13.3 132.19-12.5 131.09-11.28 129.99-10.05 129.14-8.72 128.29-7.4 127.84-6.4L127.84-6.4Q126.89-3.1 126.11 0.18 125.34 3.45 124.64 6.25 123.94 9.05 123.21 11 122.49 12.95 121.64 13.65L121.64 13.65Q121.24 14 120.79 14Z" opacity="1" transform="matrix(1,0,0,1,0,0)" fill="#b2d8da" class="undefined-text-0" data-fill-palette-color="quaternary" id="text-0"></path></svg></g></svg></g><g transform="matrix(1,0,0,1,0,92.12588580360122)"><svg viewBox="0 0 213.1584412271571 37.2654617529995" height="37.2654617529995" width="213.1584412271571"><g transform="matrix(1,0,0,1,0,0)"><svg width="213.1584412271571" viewBox="1.600000023841858 -36.150001525878906 263.97998046875 46.150001525878906" height="37.2654617529995" data-palette-color="#b2d8da"><path d="M17-29.05L17-29.05Q15.3-29.5 13.45-29.5 11.6-29.5 10.48-28.58 9.35-27.65 9.35-25.98 9.35-24.3 10.2-23.35 11.05-22.4 13.55-21.7L13.55-21.7 18-20.4Q21.6-19.35 23.73-17.13 25.85-14.9 25.85-10.6L25.85-10.6Q25.85-5.5 22.18-2.55 18.5 0.4 13.05 0.4L13.05 0.4Q10.05 0.4 6.88-0.38 3.7-1.15 1.6-2.55L1.6-2.55Q1.6-2.85 1.6-3.7 1.6-4.55 1.95-6.6 2.3-8.65 2.95-9.95L2.95-9.95 7.7-9.95Q8.5-8.4 8.65-5.8L8.65-5.8Q10.4-5.05 12.73-5.05 15.05-5.05 16.55-6.15 18.05-7.25 18.05-9.3L18.05-9.3Q18.05-10.25 17.9-10.88 17.75-11.5 16.98-12.23 16.2-12.95 14.75-13.4L14.75-13.4 9.6-14.9Q1.75-17.15 1.75-24.9L1.75-24.9Q1.75-29.45 5.05-32.18 8.35-34.9 13.68-34.9 19-34.9 24.1-32.5L24.1-32.5Q24.1-32.2 24.1-31.35 24.1-30.5 23.75-28.45 23.4-26.4 22.75-25.1L22.75-25.1 18-25.1Q17.15-26.3 17-29.05ZM33.74-21.15L34.24-25Q36.99-25.6 39.19-25.6 41.39-25.6 42.84-25.5L42.84-25.5 42.84-23.05Q46.19-25.4 49.99-25.4L49.99-25.4Q54.99-25.4 57.24-22.55 59.49-19.7 59.49-13.05L59.49-13.05Q59.49-9.5 58.44-6.8 57.39-4.1 55.59-2.6L55.59-2.6Q52.14 0.4 47.39 0.4L47.39 0.4Q45.34 0.4 43.49 0L43.49 0 43.49 4.3Q46.44 5.1 47.29 6.15L47.29 6.15 46.79 10 34.24 10 33.74 6.15Q34.39 5.25 36.49 4.45L36.49 4.45 36.49-19.45Q34.74-20.05 33.74-21.15L33.74-21.15ZM46.89-4.7L46.89-4.7Q49.39-4.7 50.84-6.93 52.29-9.15 52.29-13.08 52.29-17 51.49-18.45 50.69-19.9 48.59-19.9L48.59-19.9Q45.39-19.9 43.49-18.4L43.49-18.4 43.49-5.1Q45.04-4.7 46.89-4.7ZM80.17 0.4L80.17 0.4Q74.17 0.4 71.15-2.8 68.12-6 68.12-12.1L68.12-12.1Q68.12-15.8 69.17-18.48 70.22-21.15 72.02-22.6L72.02-22.6Q75.52-25.4 80.17-25.4 84.82-25.4 87.3-23.03 89.77-20.65 89.77-14.5L89.77-14.5Q89.77-10.9 86.22-10.9L86.22-10.9 75.37-10.9Q75.57-7.75 77-6.45 78.42-5.15 81.52-5.15L81.52-5.15Q83.22-5.15 84.77-5.55 86.32-5.95 87.02-6.35L87.02-6.35 87.72-6.75 89.22-2.75Q88.92-2.4 88.35-1.88 87.77-1.35 85.45-0.48 83.12 0.4 80.17 0.4ZM75.42-15.05L83.32-15.35Q83.42-16.05 83.42-17.05 83.42-18.05 82.62-19.18 81.82-20.3 79.85-20.3 77.87-20.3 76.82-19.1 75.77-17.9 75.42-15.05L75.42-15.05ZM110.16-20.3L110.16-20.3Q105.56-20.3 105.56-12.4L105.56-12.4Q105.56-8.4 106.83-6.83 108.11-5.25 110.51-5.25L110.51-5.25Q114.31-5.25 117.21-5.95L117.21-5.95 118.71-2.1Q117.11-1.05 114.41-0.33 111.71 0.4 109.16 0.4L109.16 0.4Q98.36 0.4 98.36-12.1L98.36-12.1Q98.36-19.4 102.11-22.6L102.11-22.6Q105.46-25.4 110.26-25.4 115.06-25.4 118.26-23.6L118.26-23.6Q118.31-23.1 118.31-22.65L118.31-22.65Q118.31-19.8 117.01-17.25L117.01-17.25 112.61-17.25Q111.91-18.5 111.76-20.25L111.76-20.25Q111.16-20.3 110.16-20.3ZM127.1-21.15L127.6-25Q130.4-25.65 132.8-25.65 135.2-25.65 136.85-25.5L136.85-25.5 136.85-5.55Q138.8-4.8 139.6-3.85L139.6-3.85 139.1 0 127.6 0 127.1-3.85Q127.8-4.8 129.85-5.55L129.85-5.55 129.85-19.45Q128.1-20.05 127.1-21.15L127.1-21.15ZM133.27-28.45Q129.1-28.45 129.1-32.23 129.1-36 133.27-36 137.45-36 137.45-32.23 137.45-28.45 133.27-28.45ZM148.68-21.3L148.68-21.3Q148.68-22.05 148.73-22.9L148.73-22.9Q153.38-25.4 158.73-25.4 164.08-25.4 166.41-23.38 168.73-21.35 168.73-16.65L168.73-16.65 168.73-6Q170.48-5.65 171.48-5.15L171.48-5.15 171.48-0.8Q168.93 0.4 164.18 0.4L164.18 0.4Q163.68-0.9 163.33-2.75L163.33-2.75Q161.18 0.4 155.53 0.4L155.53 0.4Q152.18 0.4 149.81-1.55 147.43-3.5 147.43-6.85 147.43-10.2 149.66-12.13 151.88-14.05 156.28-14.05L156.28-14.05 161.73-14.05 161.73-16.45Q161.73-20.35 157.58-20.35L157.58-20.35Q156.03-20.35 155.03-20.05L155.03-20.05Q154.93-17.95 154.43-16.8L154.43-16.8 149.53-16.8Q148.68-18.55 148.68-21.3ZM157.68-4.7L157.68-4.7Q160.23-4.7 161.73-6.2L161.73-6.2 161.73-10.3 158.23-10.3Q154.63-10.3 154.63-7.55L154.63-7.55Q154.63-6.3 155.41-5.5 156.18-4.7 157.68-4.7ZM178.77-31.65L179.27-35.5Q182.07-36.15 184.47-36.15 186.87-36.15 188.52-36L188.52-36 188.52-5.55Q190.47-4.8 191.27-3.85L191.27-3.85 190.77 0 179.27 0 178.77-3.85Q179.47-4.8 181.52-5.55L181.52-5.55 181.52-29.95Q179.77-30.55 178.77-31.65L178.77-31.65ZM199.51-21.15L200.01-25Q202.81-25.65 205.21-25.65 207.61-25.65 209.26-25.5L209.26-25.5 209.26-5.55Q211.21-4.8 212.01-3.85L212.01-3.85 211.51 0 200.01 0 199.51-3.85Q200.21-4.8 202.26-5.55L202.26-5.55 202.26-19.45Q200.51-20.05 199.51-21.15L199.51-21.15ZM205.68-28.45Q201.51-28.45 201.51-32.23 201.51-36 205.68-36 209.86-36 209.86-32.23 209.86-28.45 205.68-28.45ZM230.09-20.9L230.09-20.9Q226.79-20.9 226.79-18.95L226.79-18.95Q226.79-17.1 230.24-16.2L230.24-16.2 234.19-15.15Q240.29-13.55 240.29-8.1L240.29-8.1Q240.29-4.35 237.67-1.98 235.04 0.4 229.32 0.4 223.59 0.4 220.39-1.2L220.39-1.2Q220.34-1.75 220.34-2.3L220.34-2.3Q220.34-5.05 221.44-7.25L221.44-7.25 225.59-7.25Q226.24-6.05 226.44-4.75L226.44-4.75Q227.44-4.45 229.29-4.45L229.29-4.45Q233.69-4.45 233.69-6.95L233.69-6.95Q233.69-7.75 233.09-8.28 232.49-8.8 230.74-9.3L230.74-9.3 226.79-10.45Q223.74-11.3 222.04-12.98 220.34-14.65 220.34-17.93 220.34-21.2 222.99-23.3 225.64-25.4 230.57-25.4 235.49-25.4 238.89-23.95L238.89-23.95Q238.94-23.45 238.94-22.95L238.94-22.95Q238.94-20.35 237.84-18.15L237.84-18.15 233.74-18.15Q233.09-19.3 232.89-20.55L232.89-20.55Q231.49-20.9 230.09-20.9ZM254.18-31.3L257.83-31.3 257.83-25 264.98-25 264.98-20.8 257.83-20.8 257.83-8.15Q257.83-6.55 258.28-5.83 258.73-5.1 260.43-5.1 262.13-5.1 264.08-5.85L264.08-5.85 265.58-1.95Q261.73 0 257.7 0 253.68 0 252.25-1.73 250.83-3.45 250.83-6.75L250.83-6.75 250.83-20.8 248.58-20.8 248.03-23.85Q248.83-24.8 251.33-25.75L251.33-25.75Q251.93-29.85 254.18-31.3L254.18-31.3Z" opacity="1" transform="matrix(1,0,0,1,0,0)" fill="#b2d8da" class="undefined-text-1" data-fill-palette-color="quaternary" id="text-1"></path></svg></g></svg></g></svg></g></svg></g><g transform="matrix(1,0,0,1,40.713262274387006,0)"><svg viewBox="0 0 131.7319166783831 131.28916090176466" height="131.28916090176466" width="131.7319166783831"><g><svg xmlns="http://www.w3.org/2000/svg" xmlns:xlink="http://www.w3.org/1999/xlink" version="1.1" x="0" y="0" viewBox="3.0999999046325684 4 505.79998779296875 504.0999755859375" enable-background="new 0 0 512 512" xml:space="preserve" height="131.28916090176466" width="131.7319166783831" class="icon-icon-0" data-fill-palette-color="quaternary" id="icon-0"><g fill="#b2d8da" data-fill-palette-color="quaternary"><path fill="#b2d8da" d="M88.9 157.6h47.8v-21H88.9v-23.2h47.8v-21H88.9V69.2h47.8v-21H88.9V25h47.8V4H21.5v21h46.4v23.2H21.5v21h46.4v23.2H21.5v21h46.4v23.2H21.5v21h46.4v176.7H3.1v139.4c0 18.9 15.4 34.4 34.4 34.4h81.9c18.9 0 34.4-15.4 34.4-34.4V334.3H88.9V157.6z" data-fill-palette-color="quaternary"></path><polygon fill="#b2d8da" points="451.2,100.7 248.8,100.7 289.5,358.4 410.5,358.4  " data-fill-palette-color="quaternary"></polygon><polygon fill="#b2d8da" points="191.1,4 203.1,79.7 203.1,79.7 250.4,379.4 271.7,379.4 224.3,79.7 475.7,79.7 428.3,379.4    449.6,379.4 496.9,79.7 496.9,79.7 508.9,4  " data-fill-palette-color="quaternary"></polygon><rect x="328.8" y="400.4" fill="#b2d8da" width="42.4" height="107.6" data-fill-palette-color="quaternary"></rect><path fill="#b2d8da" d="M392.2 508h21c19.1 0 34.6-15.5 34.6-34.6v-73.1h-55.5V508z" data-fill-palette-color="quaternary"></path><path fill="#b2d8da" d="M252.2 473.4c0 19.1 15.5 34.6 34.6 34.6h21V400.4h-55.5V473.4z" data-fill-palette-color="quaternary"></path></g></svg></g></svg></g><g></g></svg></g></svg></g></svg></g></svg></g><defs></defs></svg><rect width="333.90454557049503" height="333.90454557049503" fill="none" stroke="none" visibility="hidden"></rect></g></svg></g></svg>